<svg xmlns="http://www.w3.org/2000/svg" xmlns:xlink="http://www.w3.org/1999/xlink" width="138" height="138" viewBox="0 0 138 138">
  <defs>
    <clipPath id="clip-path">
      <rect id="Rectangle_1" data-name="Rectangle 1" width="106.425" height="104.992" transform="translate(0 0)" fill="none"/>
    </clipPath>
  </defs>
  <g id="Group_2382" data-name="Group 2382" transform="translate(6706 11994)">
    <circle id="Ellipse_46" data-name="Ellipse 46" cx="69" cy="69" r="69" transform="translate(-6706 -11994)" fill="#0b1035"/>
    <g id="Group_2381" data-name="Group 2381" transform="translate(-6685.528 -11976.327)">
      <g id="Group_1" data-name="Group 1" transform="translate(0 0)" clip-path="url(#clip-path)">
        <path id="Path_1" data-name="Path 1" d="M130.778,205.409l-.037.024h0l.037-.023" transform="translate(-118.378 -185.716)" fill="#f43e49"/>
        <path id="Path_2" data-name="Path 2" d="M288.334,995.838l-.037.024-.046-.062c.012-.009.033-.025.036-.023a.473.473,0,0,1,.047.061" transform="translate(-260.994 -900.311)" fill="#f43e49"/>
        <path id="Path_3" data-name="Path 3" d="M292.35,1041.855l-.035.023-.044-.058c.011-.008.032-.024.034-.022a.5.5,0,0,1,.045.058" transform="translate(-264.634 -941.919)" fill="#f43e49"/>
        <path id="Path_4" data-name="Path 4" d="M304.936,1028.194l-.255-.015a1.946,1.946,0,0,1,.255.015" transform="translate(-275.871 -929.606)" fill="#f43e49"/>
        <path id="Path_5" data-name="Path 5" d="M97,198.091c-2.408,9.014-4.853,18.018-7.213,27.045-1.008,3.858-2.132,7.685-3.032,11.572a.681.681,0,0,1-.779.624c-1.416-.007-2.834.013-4.25.023-.008.091.013.237-.08.244-.165.013-.1-.152-.121-.246a2.566,2.566,0,0,0-.839,0,1.872,1.872,0,0,0-.769,0l-.843-.012-6-.016c-.551,0-1.1,0-1.655,0s-.619-.1-.475-.635c.442-1.63.911-3.251,1.337-4.885.611-2.342,1.2-4.688,1.845-7.023.982-3.579,1.825-7.2,2.876-10.757.817-2.764,1.38-5.6,2.157-8.37.1-.356-.055-.38-.342-.384-3.388-.038-6.776.1-10.163,0a10.7,10.7,0,0,1-4.1-.794,8.542,8.542,0,0,1-4.727-8.26,33.891,33.891,0,0,1,1.237-5.545q3.428-13.055,6.9-26.1a1.381,1.381,0,0,0,.024-.139c.31-1.243.75-2.451,1.012-3.708.068-.327.157-.649.235-.973.148-.615.233-.684.875-.684l6.982,0c.22,0,.44-.012.66-.017l6.664.016c.785,0,.814.057.583.826-.156.518-.276,1.046-.412,1.568q-1.572,5.935-3.14,11.87-1.967,7.461-3.919,14.924a1.641,1.641,0,0,1-1.272,1.307,43.544,43.544,0,0,0-4.177,1.345c-.15.058-.337.067-.459.256,2.512,0,5,0,7.481,0q1.489,0,2.979.012c.79.006.964-.12,1.165-.883q3.821-14.48,7.641-28.961c.122-.462.238-.925.374-1.382.213-.712.47-.9,1.194-.9,1.37,0,2.742.032,4.112,0,.47-.011.49.124.382.526q-2.537,9.483-5.047,18.973a57.921,57.921,0,0,0-1.7,6.908c-.681,5,1.535,9.665,6.35,11.736.55.237.6.328.451.9" transform="translate(-54.136 -143.801)" fill="#f43e49"/>
        <path id="Path_6" data-name="Path 6" d="M510.3,615.753q-1.005,3.785-2.011,7.569a.5.5,0,0,1-.549.414c-.976-.006-1.952,0-2.989,0,.725-2.744,1.436-5.421,2.138-8.1a.491.491,0,0,1,.573-.427c.834.038,1.669.063,2.5.08.335.007.412.174.336.464" transform="translate(-457.022 -556.226)" fill="#f43e49"/>
        <path id="Path_7" data-name="Path 7" d="M715.311,804.82a.179.179,0,0,1-.024.034l-.057-.049.026-.036a.471.471,0,0,1,.055.051" transform="translate(-647.6 -727.615)" fill="#f43e49"/>
        <path id="Path_8" data-name="Path 8" d="M441.848,68.994a42.712,42.712,0,0,1-1.46,6.241c-.705,2.778-1.469,5.541-2.206,8.311l-1.492,5.563c-.275,1.268-.638,2.514-.982,3.763q-.4,1.475-.8,2.951a11.771,11.771,0,0,1-.484,1.816c-.3,1.074-.5,2.173-.909,3.222-.127.33-.113.744-.219,1.107-.047.162-.042.35-.191.471a13,13,0,0,1-.566,2.328,2.633,2.633,0,0,1-.263.889c-.244,1.351-.667,2.656-1.016,3.979-.661,2.508-1.325,5.015-2.041,7.508-.279.972-.391,1.986-.748,2.935a3.53,3.53,0,0,1-.3,1.051c.036.117.046.227-.079.3,0,.059-.007.12-.009.179-.134.824-.447,1.6-.661,2.4a8.87,8.87,0,0,1-.442,1.589c-.009.046-.017.091-.026.137a.556.556,0,0,1-.091.382,1.528,1.528,0,0,1-.15.592,1.636,1.636,0,0,1-.233.651,10.7,10.7,0,0,1-1.58,3.2.868.868,0,0,0-.044.083,16.873,16.873,0,0,1-8.041,6.347,13.518,13.518,0,0,1-4.584.816c-2.3.011-4.6-.012-6.9-.012-2.733,0-5.464.011-8.2.016-.142,0-.284,0-.426-.01-.372-.019-.5-.145-.387-.571,1.047-3.877,2.069-7.762,3.1-11.645.11-.415.24-.825.33-1.245a.741.741,0,0,1,.844-.644c2.253.007,4.508,0,6.761,0q5.153,0,10.307-.006c.149,0,.317.056.449-.084-.092-.162-.263-.153-.406-.2q-2.379-.706-4.759-1.405c-.593-.174-.69-.332-.512-.933,1.37-4.649,2.492-9.365,3.734-14.048.065-.246.14-.491.214-.734.149-.5.013-.7-.494-.7q-3.238,0-6.477.007c-1.276,0-2.552.015-3.829.008a8.019,8.019,0,0,1-6.236-2.453,8.5,8.5,0,0,1-2.224-6.783,41.018,41.018,0,0,1,1.567-6.7q2.413-9.23,4.87-18.449a15.1,15.1,0,0,1,3.463-6.271,16.4,16.4,0,0,1,7.071-4.713c.311-.1.628-.195.943-.291l.963-.214.456-.073a12.039,12.039,0,0,1,2.464-.094l.471.015.381.007,9.35-.012c1.511,0,3.023-.034,4.533.013a8,8,0,0,1,5.969,2.54,8.564,8.564,0,0,1,2.226,6.872" transform="translate(-358.808 -53.811)" fill="#f43e49"/>
        <path id="Path_9" data-name="Path 9" d="M111.349,34.949c-1.766-2.146-3.573-4.259-5.486-6.273a11.542,11.542,0,0,0-7.4-3.631c-1.682-.174-3.369-.073-5.053-.082-3.229-.019-6.458-.013-9.688-.019h-1.8a17.852,17.852,0,0,0-10.687,3.78,20.6,20.6,0,0,0-4.588,4.92,1.747,1.747,0,0,1-1.521.866c-.2,0-.4-.019-.605-.021l-4.345-.035c-.187.009-.375.024-.564.024q-6.343,0-12.685,0c-1.1,0-2.2-.013-3.3-.02l-.568,0a4.206,4.206,0,0,1-.945,0l-.286.007a.947.947,0,0,1-.469,0q-2.434,0-4.868,0c-1.023,0-1.223.151-1.487,1.146q-.641,2.4-1.28,4.8c-.023.126-.036.253-.068.376q-1.515,5.732-3.032,11.463c-1.773,6.732-3.638,13.44-5.29,20.2a10.49,10.49,0,0,0,1.894,9.618c1.807,2.216,3.678,4.379,5.661,6.437a11.343,11.343,0,0,0,8.178,3.571c1.061.026,1.093.078.808,1.148q-3.286,12.334-6.575,24.67a1.4,1.4,0,0,0,.4,1.509c1.411,1.394,2.8,2.812,4.179,4.235a1.74,1.74,0,0,0,1.344.565c3.01-.016,6.019-.013,9.028-.012,1.8,0,3.591.015,5.388.023h1.7q2.033-.006,4.064-.012c.743,0,.865-.1,1.056-.812s.371-1.419.556-2.127q.756-2.891,1.514-5.78c.174-.661.339-.806,1.019-.833.441-.017.882.008,1.323.008,4.459-.007,8.918-.08,13.376.03a16.988,16.988,0,0,0,7.938-1.82,21.34,21.34,0,0,0,5.074-3.541c.107-.116.211-.235.322-.347a18.432,18.432,0,0,0,4.925-8.32q3.838-14.437,7.649-28.882,2.711-10.225,5.429-20.446c.62-2.349,1.239-4.7,1.784-7.068a10.3,10.3,0,0,0-2.025-9.316m1.047,9.407c-.92,3.873-1.986,7.711-2.994,11.563-.415,1.587-.844,3.17-1.264,4.755q-5.257,19.848-10.516,39.7a16.929,16.929,0,0,1-3.948,7.1,7.638,7.638,0,0,1-1.386,1.4,17.824,17.824,0,0,1-9.428,4.684,41.032,41.032,0,0,1-6.367.1c-3.858.02-7.717.013-11.575.023-.746,0-.934.156-1.124.887q-1.011,3.881-2.018,7.763c-.212.817-.33.912-1.175.909l-7.7-.023H51.572c-.006-.17-.026-.328-.263-.382-.007.144-.012.263-.017.382-2.9.007-5.8.021-8.7.018-2.022,0-1.575.181-3.022-1.289-.924-.939-1.833-1.893-2.786-2.8a1.391,1.391,0,0,1-.425-1.535q2.353-8.766,4.671-17.543l2.088-7.849c.264-.992.19-1.08-.811-1.044a12.1,12.1,0,0,1-5.78-1.146,9.432,9.432,0,0,1-2.578-1.835,87.688,87.688,0,0,1-5.984-6.722,9.683,9.683,0,0,1-1.671-9c2.081-8.017,4.2-16.022,6.309-24.031q.777-2.957,1.57-5.91a1.525,1.525,0,0,1,.092-.215c.456-1.771.9-3.543,1.369-5.311.44-1.676.252-1.59,2.041-1.579,1.825.012,3.65.032,5.474.048h.2a2.7,2.7,0,0,1,.843,0c1.335-.011,2.67-.028,4.005-.034,2.485-.011,4.97,0,7.454-.034a2.061,2.061,0,0,1,1.686.672,5.6,5.6,0,0,0,.511.44c.16-.958.318-1.094,1.253-1.09s1.854.021,2.781.033c1.212,0,2.425-.035,3.636.011a1.688,1.688,0,0,0,1.642-.867,18.3,18.3,0,0,1,10.482-8.054,10.61,10.61,0,0,1,2.77-.54,5.215,5.215,0,0,1,1.548-.09c5.026-.007,10.052-.018,15.079,0A10.967,10.967,0,0,1,105.6,29.8c1.55,1.767,3.119,3.516,4.661,5.289a9.92,9.92,0,0,1,2.13,9.264" transform="translate(-22.575 -22.551)" fill="#f43e49"/>
        <path id="Path_10" data-name="Path 10" d="M91.024,11.525a58.24,58.24,0,0,0-7.061-7.978A13.749,13.749,0,0,0,74.809.028C73.33-.023,71.847.017,70.366.019l-11.2.016a10.539,10.539,0,0,0-2.953.23A21.279,21.279,0,0,0,42.616,8.958a1.179,1.179,0,0,1-1.138.562c-.817-.039-1.637,0-2.456,0q-4.645-.009-9.292-.014-5.566,0-11.131.017-3.606-.016-7.211-.035a.525.525,0,0,0-.578.441q-.921,3.529-1.85,7.054a16.061,16.061,0,0,0-.489,1.73C6.722,24.946,5.158,31.226,3.466,37.471c-.772,2.845-1.487,5.7-2.267,8.547A22.956,22.956,0,0,0,.067,54.39,9.332,9.332,0,0,0,1.192,58.5a53.7,53.7,0,0,0,7.081,8.767,13.938,13.938,0,0,0,7.509,4.33c.66.129.75.313.575.976-.448,1.694-.9,3.387-1.355,5.081-1.649,6.208-3.22,12.436-5.021,18.6a1.187,1.187,0,0,0,.359,1.289q3.081,3.076,6.14,6.177a1.01,1.01,0,0,0,.8.32c1.339-.013,2.678,0,4.018-.007l9.122-.016h2.552c2.709.007,5.418.011,8.126.026.324,0,.422-.157.5-.445.739-2.853,1.431-5.72,2.266-8.547a.617.617,0,0,1,.7-.517q6.191.022,12.381.008a25.566,25.566,0,0,0,2.639-.067,22.176,22.176,0,0,0,13.9-7.194,18.846,18.846,0,0,0,2.985-4.232,31.685,31.685,0,0,0,2.444-7.024c2.215-8.317,4.37-16.651,6.612-24.96,2.236-8.289,4.351-16.613,6.651-24.884a47.194,47.194,0,0,0,1-4.627,12.378,12.378,0,0,0-2.146-10.03M90.8,21.716c-.546,2.368-1.164,4.719-1.784,7.068q-2.7,10.226-5.429,20.446-3.827,14.44-7.649,28.882a18.432,18.432,0,0,1-4.925,8.32c-.111.112-.215.231-.321.347a21.341,21.341,0,0,1-5.074,3.541,16.988,16.988,0,0,1-7.938,1.82c-4.458-.109-8.917-.036-13.376-.03-.441,0-.882-.025-1.323-.008-.68.027-.845.172-1.019.833q-.759,2.889-1.514,5.78c-.185.708-.368,1.419-.556,2.127s-.313.808-1.056.812q-2.033.009-4.064.012h-1.7c-1.8-.008-3.592-.021-5.388-.023-3.01,0-6.019,0-9.028.012a1.74,1.74,0,0,1-1.344-.565c-1.382-1.423-2.769-2.841-4.179-4.235a1.4,1.4,0,0,1-.4-1.509q3.3-12.331,6.575-24.67c.286-1.07.253-1.122-.808-1.148a11.343,11.343,0,0,1-8.178-3.571C8.336,63.9,6.465,61.738,4.658,59.523A10.49,10.49,0,0,1,2.764,49.9c1.652-6.765,3.517-13.473,5.29-20.2q1.511-5.732,3.032-11.463c.032-.123.045-.25.068-.376q.64-2.4,1.28-4.8c.265-1,.464-1.147,1.487-1.146q2.434,0,4.868,0a.947.947,0,0,0,.469,0l.286-.007a4.206,4.206,0,0,0,.945,0l.568,0c1.1.007,2.2.019,3.3.02q6.342,0,12.685,0c.188,0,.376-.015.564-.024l4.345.035c.2,0,.4.022.605.021a1.747,1.747,0,0,0,1.521-.866,20.6,20.6,0,0,1,4.588-4.92,17.852,17.852,0,0,1,10.687-3.78h1.8c3.229.006,6.458,0,9.688.019,1.684.01,3.371-.092,5.053.082a11.542,11.542,0,0,1,7.4,3.631c1.913,2.014,3.72,4.127,5.486,6.273A10.3,10.3,0,0,1,90.8,21.716" transform="translate(0 -0.002)" fill="#f43e49"/>
        <path id="Path_11" data-name="Path 11" d="M111.349,34.949c-1.766-2.146-3.573-4.259-5.486-6.273a11.542,11.542,0,0,0-7.4-3.631c-1.682-.174-3.369-.073-5.053-.082-3.229-.019-6.458-.013-9.688-.019h-1.8a17.852,17.852,0,0,0-10.687,3.78,20.6,20.6,0,0,0-4.588,4.92,1.747,1.747,0,0,1-1.521.866c-.2,0-.4-.019-.605-.021l-4.345-.035c-.187.009-.375.024-.564.024q-6.343,0-12.685,0c-1.1,0-2.2-.013-3.3-.02l-.568,0a4.206,4.206,0,0,1-.945,0l-.286.007a.947.947,0,0,1-.469,0q-2.434,0-4.868,0c-1.023,0-1.223.151-1.487,1.146q-.641,2.4-1.28,4.8c-.023.126-.036.253-.068.376q-1.515,5.732-3.032,11.463c-1.773,6.732-3.638,13.44-5.29,20.2a10.49,10.49,0,0,0,1.894,9.618c1.807,2.216,3.678,4.379,5.661,6.437a11.343,11.343,0,0,0,8.178,3.571c1.061.026,1.093.078.808,1.148q-3.286,12.334-6.575,24.67a1.4,1.4,0,0,0,.4,1.509c1.411,1.394,2.8,2.812,4.179,4.235a1.74,1.74,0,0,0,1.344.565c3.01-.016,6.019-.013,9.028-.012,1.8,0,3.591.015,5.388.023h1.7q2.033-.006,4.064-.012c.743,0,.865-.1,1.056-.812s.371-1.419.556-2.127q.756-2.891,1.514-5.78c.174-.661.339-.806,1.019-.833.441-.017.882.008,1.323.008,4.459-.007,8.918-.08,13.376.03a16.988,16.988,0,0,0,7.938-1.82,21.34,21.34,0,0,0,5.074-3.541c.107-.116.211-.235.322-.347a18.432,18.432,0,0,0,4.925-8.32q3.838-14.437,7.649-28.882,2.711-10.225,5.429-20.446c.62-2.349,1.239-4.7,1.784-7.068a10.3,10.3,0,0,0-2.025-9.316m1.047,9.407c-.92,3.873-1.986,7.711-2.994,11.563-.415,1.587-.844,3.17-1.264,4.755q-5.257,19.848-10.516,39.7a16.929,16.929,0,0,1-3.948,7.1,7.638,7.638,0,0,1-1.386,1.4,17.824,17.824,0,0,1-9.428,4.684,41.032,41.032,0,0,1-6.367.1c-3.858.02-7.717.013-11.575.023-.746,0-.934.156-1.124.887q-1.011,3.881-2.018,7.763c-.212.817-.33.912-1.175.909l-7.7-.023H51.292c-2.9.007-5.8.021-8.7.018-2.022,0-1.575.181-3.022-1.289-.924-.939-1.833-1.893-2.786-2.8a1.391,1.391,0,0,1-.425-1.535q2.353-8.766,4.671-17.543l2.088-7.849c.264-.992.19-1.08-.811-1.044a12.1,12.1,0,0,1-5.78-1.146,9.432,9.432,0,0,1-2.578-1.835,87.688,87.688,0,0,1-5.984-6.722,9.683,9.683,0,0,1-1.671-9c2.081-8.017,4.2-16.022,6.309-24.031q.777-2.957,1.57-5.91a1.525,1.525,0,0,1,.092-.215c.456-1.771.9-3.543,1.369-5.311.44-1.676.252-1.59,2.041-1.579,1.825.012,3.65.032,5.474.048h.2a2.7,2.7,0,0,1,.843,0c1.335-.011,2.67-.028,4.005-.034,2.485-.011,4.97,0,7.454-.034a2.061,2.061,0,0,1,1.686.672,5.6,5.6,0,0,0,.511.44c.16-.958.318-1.094,1.253-1.09s1.854.021,2.781.033c1.212,0,2.425-.035,3.636.011a1.688,1.688,0,0,0,1.642-.867,18.3,18.3,0,0,1,10.482-8.054,10.61,10.61,0,0,1,2.77-.54,5.215,5.215,0,0,1,1.548-.09c5.026-.007,10.052-.018,15.079,0A10.967,10.967,0,0,1,105.6,29.8c1.55,1.767,3.119,3.516,4.661,5.289a9.92,9.92,0,0,1,2.13,9.264" transform="translate(-22.575 -22.551)" fill="#eeecec"/>
        <path id="Path_12" data-name="Path 12" d="M121.418,53.486c-.92,3.873-1.986,7.711-2.994,11.563-.415,1.587-.844,3.17-1.264,4.755q-5.257,19.848-10.516,39.7a16.929,16.929,0,0,1-3.948,7.1,7.637,7.637,0,0,1-1.386,1.4,17.824,17.824,0,0,1-9.428,4.684,41.038,41.038,0,0,1-6.367.1c-3.858.02-7.717.013-11.575.023-.746,0-.934.156-1.124.887q-1.011,3.881-2.018,7.763c-.212.817-.33.912-1.175.909l-7.7-.023H60.314c-2.9.007-5.8.021-8.7.018-2.022,0-1.575.181-3.022-1.289-.924-.939-1.834-1.893-2.786-2.8a1.391,1.391,0,0,1-.425-1.535q2.353-8.766,4.671-17.543l2.088-7.849c.264-.992.19-1.079-.811-1.044a12.1,12.1,0,0,1-5.78-1.146,9.432,9.432,0,0,1-2.578-1.835A87.69,87.69,0,0,1,36.99,90.6a9.683,9.683,0,0,1-1.671-9c2.081-8.017,4.2-16.022,6.309-24.031q.777-2.957,1.57-5.91a1.524,1.524,0,0,1,.092-.215c.456-1.771.9-3.543,1.369-5.311.44-1.676.252-1.591,2.041-1.579,1.825.012,3.65.032,5.474.048h.2a2.7,2.7,0,0,1,.843,0c1.335-.012,2.67-.028,4.005-.034,2.485-.011,4.97,0,7.454-.034a2.061,2.061,0,0,1,1.686.672,5.6,5.6,0,0,0,.511.44c.16-.958.318-1.094,1.253-1.09s1.854.021,2.781.033c1.212,0,2.425-.035,3.636.011a1.688,1.688,0,0,0,1.642-.867,18.3,18.3,0,0,1,10.482-8.054,10.611,10.611,0,0,1,2.77-.54,5.215,5.215,0,0,1,1.548-.09c5.026-.007,10.053-.018,15.079,0a10.967,10.967,0,0,1,8.562,3.877c1.55,1.767,3.119,3.516,4.661,5.289a9.92,9.92,0,0,1,2.13,9.264" transform="translate(-31.597 -31.682)" fill="#0b1035"/>
        <path id="Path_13" data-name="Path 13" d="M130.741,205.432l.037-.023-.037.024Z" transform="translate(-118.378 -185.716)" fill="#0b1035"/>
        <path id="Path_14" data-name="Path 14" d="M86.753,236.708a.681.681,0,0,1-.779.624c-1.416-.007-2.834.013-4.25.023-.008.091.013.237-.08.244-.165.013-.1-.152-.121-.246a2.566,2.566,0,0,0-.839,0,1.872,1.872,0,0,0-.769,0l-.843-.012-6-.016c-.551,0-1.1,0-1.655,0s-.619-.1-.475-.635c.442-1.63.911-3.251,1.337-4.885.611-2.342,1.2-4.688,1.845-7.023.982-3.579,1.825-7.2,2.876-10.757.817-2.764,1.38-5.6,2.157-8.37.1-.356-.055-.38-.342-.384-3.388-.038-6.776.1-10.163,0a10.7,10.7,0,0,1-4.1-.794,8.542,8.542,0,0,1-4.727-8.26,33.891,33.891,0,0,1,1.237-5.545q3.428-13.055,6.9-26.1a1.381,1.381,0,0,0,.024-.139c.31-1.243.75-2.451,1.012-3.708.068-.327.157-.649.235-.973.148-.615.233-.684.875-.684l6.982,0c.22,0,.44-.012.66-.017l6.664.016c.785,0,.814.057.583.826-.156.518-.276,1.046-.412,1.568q-1.572,5.935-3.14,11.87-1.967,7.461-3.919,14.924a1.641,1.641,0,0,1-1.272,1.307,43.544,43.544,0,0,0-4.177,1.345c-.15.058-.337.067-.459.256,2.512,0,5,0,7.481,0q1.489,0,2.979.012c.79.006.964-.12,1.165-.883q3.821-14.48,7.641-28.961c.122-.462.238-.925.374-1.382.213-.712.47-.9,1.194-.9,1.37,0,2.742.032,4.112,0,.47-.011.49.124.382.526q-2.537,9.483-5.047,18.973a57.921,57.921,0,0,0-1.7,6.908c-.681,5,1.535,9.665,6.35,11.736.55.237.6.328.451.9-2.408,9.014-4.853,18.018-7.213,27.045-1.008,3.858-2.132,7.685-3.032,11.572" transform="translate(-54.136 -143.801)" fill="#0b1035"/>
        <path id="Path_15" data-name="Path 15" d="M441.848,68.994a42.712,42.712,0,0,1-1.46,6.241c-.705,2.778-1.469,5.541-2.206,8.311l-1.492,5.563c-.275,1.268-.638,2.514-.982,3.763q-.4,1.475-.8,2.951a11.771,11.771,0,0,1-.484,1.816c-.3,1.074-.5,2.173-.909,3.222-.127.33-.113.744-.219,1.107-.047.162-.042.35-.191.471a13,13,0,0,1-.566,2.328,2.633,2.633,0,0,1-.263.889c-.244,1.351-.667,2.656-1.016,3.979-.661,2.508-1.325,5.015-2.041,7.508-.279.972-.391,1.986-.748,2.935a3.53,3.53,0,0,1-.3,1.051c.036.117.046.227-.079.3,0,.059-.007.12-.009.179-.134.824-.447,1.6-.661,2.4a8.87,8.87,0,0,1-.442,1.589c-.009.046-.017.091-.026.137a.556.556,0,0,1-.091.382,1.528,1.528,0,0,1-.15.592,1.636,1.636,0,0,1-.233.651,10.7,10.7,0,0,1-1.58,3.2.868.868,0,0,0-.044.083,16.873,16.873,0,0,1-8.041,6.347,13.518,13.518,0,0,1-4.584.816c-2.3.011-4.6-.012-6.9-.012-2.733,0-5.464.011-8.2.016-.142,0-.284,0-.426-.01-.372-.019-.5-.145-.387-.571,1.047-3.877,2.069-7.762,3.1-11.645.11-.415.24-.825.33-1.245a.741.741,0,0,1,.844-.644c2.253.007,4.508,0,6.761,0q5.153,0,10.307-.006c.149,0,.317.056.449-.084-.092-.162-.263-.153-.406-.2q-2.379-.706-4.759-1.405c-.593-.174-.69-.332-.512-.933,1.37-4.649,2.492-9.365,3.734-14.048.065-.246.14-.491.214-.734.149-.5.013-.7-.494-.7q-3.238,0-6.477.007c-1.276,0-2.552.015-3.829.008a8.019,8.019,0,0,1-6.236-2.453,8.5,8.5,0,0,1-2.224-6.783,41.018,41.018,0,0,1,1.567-6.7q2.413-9.23,4.87-18.449a15.1,15.1,0,0,1,3.463-6.271,16.4,16.4,0,0,1,7.071-4.713c.311-.1.628-.195.943-.291l.963-.214.456-.073a12.039,12.039,0,0,1,2.464-.094l.471.015.381.007,9.35-.012c1.511,0,3.023-.034,4.533.013a8,8,0,0,1,5.969,2.54,8.564,8.564,0,0,1,2.226,6.872" transform="translate(-358.808 -53.811)" fill="#0b1035"/>
        <path id="Path_16" data-name="Path 16" d="M130.778,205.409l-.037.024h0l.037-.023" transform="translate(-118.378 -185.716)" fill="#0b1035"/>
        <path id="Path_17" data-name="Path 17" d="M97,198.091c-2.408,9.014-4.853,18.018-7.213,27.045-1.008,3.858-2.132,7.685-3.032,11.572a.681.681,0,0,1-.779.624c-1.416-.007-2.834.013-4.25.023-.008.091.013.237-.08.244-.165.013-.1-.152-.121-.246a2.566,2.566,0,0,0-.839,0,1.872,1.872,0,0,0-.769,0l-.843-.012-6-.016c-.551,0-1.1,0-1.655,0s-.619-.1-.475-.635c.442-1.63.911-3.251,1.337-4.885.611-2.342,1.2-4.688,1.845-7.023.982-3.579,1.825-7.2,2.876-10.757.817-2.764,1.38-5.6,2.157-8.37.1-.356-.055-.38-.342-.384-3.388-.038-6.776.1-10.163,0a10.7,10.7,0,0,1-4.1-.794,8.542,8.542,0,0,1-4.727-8.26,33.891,33.891,0,0,1,1.237-5.545q3.428-13.055,6.9-26.1a1.381,1.381,0,0,0,.024-.139c.31-1.243.75-2.451,1.012-3.708.068-.327.157-.649.235-.973.148-.615.233-.684.875-.684l6.982,0c.22,0,.44-.012.66-.017l6.664.016c.785,0,.814.057.583.826-.156.518-.276,1.046-.412,1.568q-1.572,5.935-3.14,11.87-1.967,7.461-3.919,14.924a1.641,1.641,0,0,1-1.272,1.307,43.544,43.544,0,0,0-4.177,1.345c-.15.058-.337.067-.459.256,2.512,0,5,0,7.481,0q1.489,0,2.979.012c.79.006.964-.12,1.165-.883q3.821-14.48,7.641-28.961c.122-.462.238-.925.374-1.382.213-.712.47-.9,1.194-.9,1.37,0,2.742.032,4.112,0,.47-.011.49.124.382.526q-2.537,9.483-5.047,18.973a57.921,57.921,0,0,0-1.7,6.908c-.681,5,1.535,9.665,6.35,11.736.55.237.6.328.451.9" transform="translate(-54.136 -143.801)" fill="#0b1035"/>
        <path id="Path_18" data-name="Path 18" d="M441.848,68.994a42.712,42.712,0,0,1-1.46,6.241c-.705,2.778-1.469,5.541-2.206,8.311l-1.492,5.563c-.275,1.268-.638,2.514-.982,3.763q-.4,1.475-.8,2.951a11.771,11.771,0,0,1-.484,1.816c-.3,1.074-.5,2.173-.909,3.222-.127.33-.113.744-.219,1.107-.047.162-.042.35-.191.471a13,13,0,0,1-.566,2.328,2.633,2.633,0,0,1-.263.889c-.244,1.351-.667,2.656-1.016,3.979-.661,2.508-1.325,5.015-2.041,7.508-.279.972-.391,1.986-.748,2.935a3.53,3.53,0,0,1-.3,1.051c.036.117.046.227-.079.3,0,.059-.007.12-.009.179-.134.824-.447,1.6-.661,2.4a8.87,8.87,0,0,1-.442,1.589c-.009.046-.017.091-.026.137a.556.556,0,0,1-.091.382,1.528,1.528,0,0,1-.15.592,1.636,1.636,0,0,1-.233.651,10.7,10.7,0,0,1-1.58,3.2.868.868,0,0,0-.044.083,16.873,16.873,0,0,1-8.041,6.347,13.518,13.518,0,0,1-4.584.816c-2.3.011-4.6-.012-6.9-.012-2.733,0-5.464.011-8.2.016-.142,0-.284,0-.426-.01-.372-.019-.5-.145-.387-.571,1.047-3.877,2.069-7.762,3.1-11.645.11-.415.24-.825.33-1.245a.741.741,0,0,1,.844-.644c2.253.007,4.508,0,6.761,0q5.153,0,10.307-.006c.149,0,.317.056.449-.084-.092-.162-.263-.153-.406-.2q-2.379-.706-4.759-1.405c-.593-.174-.69-.332-.512-.933,1.37-4.649,2.492-9.365,3.734-14.048.065-.246.14-.491.214-.734.149-.5.013-.7-.494-.7q-3.238,0-6.477.007c-1.276,0-2.552.015-3.829.008a8.019,8.019,0,0,1-6.236-2.453,8.5,8.5,0,0,1-2.224-6.783,41.018,41.018,0,0,1,1.567-6.7q2.413-9.23,4.87-18.449a15.1,15.1,0,0,1,3.463-6.271,16.4,16.4,0,0,1,7.071-4.713c.311-.1.628-.195.943-.291l.963-.214.456-.073a12.039,12.039,0,0,1,2.464-.094l.471.015.381.007,9.35-.012c1.511,0,3.023-.034,4.533.013a8,8,0,0,1,5.969,2.54,8.564,8.564,0,0,1,2.226,6.872" transform="translate(-358.808 -53.811)" fill="#0b1035"/>
        <path id="Path_19" data-name="Path 19" d="M130.778,205.409l-.037.024h0l.037-.023" transform="translate(-118.378 -185.716)" fill="#0b1035"/>
        <path id="Path_20" data-name="Path 20" d="M288.3,995.862l-.046-.062c.012-.009.033-.025.036-.023a.473.473,0,0,1,.047.061l-.037.024" transform="translate(-260.994 -900.311)" fill="#0b1035"/>
        <path id="Path_21" data-name="Path 21" d="M292.315,1041.878l-.044-.058c.011-.008.032-.024.034-.022a.5.5,0,0,1,.045.058l-.035.023" transform="translate(-264.634 -941.919)" fill="#0b1035"/>
        <path id="Path_22" data-name="Path 22" d="M304.681,1028.179a1.946,1.946,0,0,1,.255.015Z" transform="translate(-275.871 -929.606)" fill="#0b1035"/>
        <path id="Path_23" data-name="Path 23" d="M97,198.091c-2.408,9.014-4.853,18.018-7.213,27.045-1.008,3.858-2.132,7.685-3.032,11.572a.681.681,0,0,1-.779.624c-1.416-.007-2.834.013-4.25.023-.008.091.013.237-.08.244-.165.013-.1-.152-.121-.246a2.566,2.566,0,0,0-.839,0,1.872,1.872,0,0,0-.769,0l-.843-.012-6-.016c-.551,0-1.1,0-1.655,0s-.619-.1-.475-.635c.442-1.63.911-3.251,1.337-4.885.611-2.342,1.2-4.688,1.845-7.023.982-3.579,1.825-7.2,2.876-10.757.817-2.764,1.38-5.6,2.157-8.37.1-.356-.055-.38-.342-.384-3.388-.038-6.776.1-10.163,0a10.7,10.7,0,0,1-4.1-.794,8.542,8.542,0,0,1-4.727-8.26,33.891,33.891,0,0,1,1.237-5.545q3.428-13.055,6.9-26.1a1.381,1.381,0,0,0,.024-.139c.31-1.243.75-2.451,1.012-3.708.068-.327.157-.649.235-.973.148-.615.233-.684.875-.684l6.982,0c.22,0,.44-.012.66-.017l6.664.016c.785,0,.814.057.583.826-.156.518-.276,1.046-.412,1.568q-1.572,5.935-3.14,11.87-1.967,7.461-3.919,14.924a1.641,1.641,0,0,1-1.272,1.307,43.544,43.544,0,0,0-4.177,1.345c-.15.058-.337.067-.459.256,2.512,0,5,0,7.481,0q1.489,0,2.979.012c.79.006.964-.12,1.165-.883q3.821-14.48,7.641-28.961c.122-.462.238-.925.374-1.382.213-.712.47-.9,1.194-.9,1.37,0,2.742.032,4.112,0,.47-.011.49.124.382.526q-2.537,9.483-5.047,18.973a57.921,57.921,0,0,0-1.7,6.908c-.681,5,1.535,9.665,6.35,11.736.55.237.6.328.451.9" transform="translate(-54.136 -143.801)" fill="#0b1035"/>
        <path id="Path_24" data-name="Path 24" d="M441.848,68.994a42.712,42.712,0,0,1-1.46,6.241c-.705,2.778-1.469,5.541-2.206,8.311l-1.492,5.563c-.275,1.268-.638,2.514-.982,3.763q-.4,1.475-.8,2.951a11.771,11.771,0,0,1-.484,1.816c-.3,1.074-.5,2.173-.909,3.222-.127.33-.113.744-.219,1.107-.047.162-.042.35-.191.471a13,13,0,0,1-.566,2.328,2.633,2.633,0,0,1-.263.889c-.244,1.351-.667,2.656-1.016,3.979-.661,2.508-1.325,5.015-2.041,7.508-.279.972-.391,1.986-.748,2.935a3.53,3.53,0,0,1-.3,1.051c.036.117.046.227-.079.3,0,.059-.007.12-.009.179-.134.824-.447,1.6-.661,2.4a8.87,8.87,0,0,1-.442,1.589c-.009.046-.017.091-.026.137a.556.556,0,0,1-.091.382,1.528,1.528,0,0,1-.15.592,1.636,1.636,0,0,1-.233.651,10.7,10.7,0,0,1-1.58,3.2.868.868,0,0,0-.044.083,16.873,16.873,0,0,1-8.041,6.347,13.518,13.518,0,0,1-4.584.816c-2.3.011-4.6-.012-6.9-.012-2.733,0-5.464.011-8.2.016-.142,0-.284,0-.426-.01-.372-.019-.5-.145-.387-.571,1.047-3.877,2.069-7.762,3.1-11.645.11-.415.24-.825.33-1.245a.741.741,0,0,1,.844-.644c2.253.007,4.508,0,6.761,0q5.153,0,10.307-.006c.149,0,.317.056.449-.084-.092-.162-.263-.153-.406-.2q-2.379-.706-4.759-1.405c-.593-.174-.69-.332-.512-.933,1.37-4.649,2.492-9.365,3.734-14.048.065-.246.14-.491.214-.734.149-.5.013-.7-.494-.7q-3.238,0-6.477.007c-1.276,0-2.552.015-3.829.008a8.019,8.019,0,0,1-6.236-2.453,8.5,8.5,0,0,1-2.224-6.783,41.018,41.018,0,0,1,1.567-6.7q2.413-9.23,4.87-18.449a15.1,15.1,0,0,1,3.463-6.271,16.4,16.4,0,0,1,7.071-4.713c.311-.1.628-.195.943-.291l.963-.214.456-.073a12.039,12.039,0,0,1,2.464-.094l.471.015.381.007,9.35-.012c1.511,0,3.023-.034,4.533.013a8,8,0,0,1,5.969,2.54,8.564,8.564,0,0,1,2.226,6.872" transform="translate(-358.808 -53.811)" fill="#0b1035"/>
        <path id="Path_25" data-name="Path 25" d="M504.751,623.734c.725-2.744,1.436-5.421,2.138-8.1a.491.491,0,0,1,.573-.427c.834.038,1.669.063,2.5.08.335.007.412.174.336.464q-1.005,3.785-2.011,7.569a.5.5,0,0,1-.549.414c-.976-.006-1.952,0-2.989,0" transform="translate(-457.022 -556.226)" fill="#0b1035"/>
        <path id="Path_26" data-name="Path 26" d="M365.654,1060.431h.194c-.065.176-.13.174-.194,0" transform="translate(-331.078 -958.766)" fill="#f44f5a"/>
        <path id="Path_27" data-name="Path 27" d="M304.681,1028.179l.255.015a1.946,1.946,0,0,0-.255-.015" transform="translate(-275.871 -929.606)" fill="#0b1035"/>
        <path id="Path_28" data-name="Path 28" d="M304.681,1028.179l.255.015a1.946,1.946,0,0,0-.255-.015" transform="translate(-275.871 -929.606)" fill="#0b1035"/>
        <path id="Path_29" data-name="Path 29" d="M130.741,205.432h0l.037-.024-.037.023" transform="translate(-118.378 -185.716)" fill="#0b1035"/>
        <path id="Path_30" data-name="Path 30" d="M439.622,62.122a8,8,0,0,0-5.969-2.54c-1.51-.047-3.022-.014-4.533-.013l-9.35.012-.381-.007-.471-.015a12.039,12.039,0,0,0-2.464.094l-.456.073-.963.214c-.315.1-.632.187-.943.291a16.4,16.4,0,0,0-7.071,4.713,15.1,15.1,0,0,0-3.463,6.271q-2.444,9.222-4.87,18.449a41.018,41.018,0,0,0-1.567,6.7,8.5,8.5,0,0,0,2.224,6.783,8.019,8.019,0,0,0,6.236,2.453c1.277.008,2.553,0,3.829-.008q3.24,0,6.477-.007c.507,0,.643.2.494.7-.074.244-.148.488-.214.734-1.242,4.683-2.364,9.4-3.734,14.048-.178.6-.08.758.512.933q2.381.7,4.759,1.405c.143.042.314.034.406.2-.132.14-.3.084-.449.084q-5.154.006-10.307.006c-2.253,0-4.508.01-6.761,0a.741.741,0,0,0-.844.644c-.09.42-.22.83-.33,1.245-1.031,3.883-2.053,7.768-3.1,11.645-.115.427.014.552.387.571.142.008.284.01.426.01,2.732-.006,5.464-.016,8.2-.016,2.3,0,4.6.023,6.9.012a13.518,13.518,0,0,0,4.584-.816,16.873,16.873,0,0,0,8.041-6.347.868.868,0,0,1,.044-.083,10.7,10.7,0,0,0,1.58-3.2,1.636,1.636,0,0,0,.233-.651,1.528,1.528,0,0,0,.15-.592.556.556,0,0,0,.091-.382c.009-.046.018-.091.026-.137a8.87,8.87,0,0,0,.442-1.589c.214-.8.527-1.576.661-2.4,0-.059.006-.12.009-.179.126-.072.115-.182.079-.3a3.53,3.53,0,0,0,.3-1.051c.357-.949.469-1.962.748-2.935.716-2.493,1.38-5,2.041-7.508.349-1.323.772-2.628,1.016-3.979a2.633,2.633,0,0,0,.263-.889,13,13,0,0,0,.566-2.328c.148-.121.144-.309.191-.471.106-.363.093-.778.219-1.107.4-1.049.605-2.149.909-3.222a11.771,11.771,0,0,0,.484-1.816q.4-1.475.8-2.951c.344-1.249.707-2.495.982-3.763l1.492-5.563c.738-2.77,1.5-5.533,2.206-8.311a42.712,42.712,0,0,0,1.46-6.241,8.564,8.564,0,0,0-2.226-6.872" transform="translate(-358.808 -53.811)" fill="#0b1035"/>
        <path id="Path_31" data-name="Path 31" d="M97,198.091c-2.408,9.014-4.853,18.018-7.213,27.045-1.008,3.858-2.132,7.685-3.032,11.572a.681.681,0,0,1-.779.624c-1.416-.007-2.834.013-4.25.023l-.2,0a2.566,2.566,0,0,0-.839,0,1.872,1.872,0,0,0-.769,0l-.843-.012-6-.016c-.551,0-1.1,0-1.655,0s-.619-.1-.475-.635c.442-1.63.911-3.251,1.337-4.885.611-2.342,1.2-4.688,1.845-7.023.982-3.579,1.825-7.2,2.876-10.757.817-2.764,1.38-5.6,2.157-8.37.1-.356-.055-.38-.342-.384-3.388-.038-6.776.1-10.163,0a10.7,10.7,0,0,1-4.1-.794,8.542,8.542,0,0,1-4.727-8.26,33.891,33.891,0,0,1,1.237-5.545q3.428-13.055,6.9-26.1a1.381,1.381,0,0,0,.024-.139c.31-1.243.75-2.451,1.012-3.708.068-.327.157-.649.235-.973.148-.615.233-.684.875-.684l6.982,0c.22,0,.44-.012.66-.017l6.664.016c.785,0,.814.057.583.826-.156.518-.276,1.046-.412,1.568q-1.572,5.935-3.14,11.87-1.967,7.461-3.919,14.924a1.641,1.641,0,0,1-1.272,1.307,43.544,43.544,0,0,0-4.177,1.345c-.15.058-.337.067-.459.256,2.512,0,5,0,7.481,0q1.489,0,2.979.012c.79.006.964-.12,1.165-.883q3.821-14.48,7.641-28.961c.122-.462.238-.925.374-1.382.213-.712.47-.9,1.194-.9,1.37,0,2.742.032,4.112,0,.47-.011.49.124.382.526q-2.537,9.483-5.047,18.973a57.921,57.921,0,0,0-1.7,6.908c-.681,5,1.535,9.665,6.35,11.736.55.237.6.328.451.9" transform="translate(-54.136 -143.801)" fill="#eeecec"/>
        <path id="Path_32" data-name="Path 32" d="M509.965,615.289c-.834-.017-1.669-.042-2.5-.08a.491.491,0,0,0-.573.427c-.7,2.679-1.413,5.355-2.138,8.1,1.037,0,2.013,0,2.989,0a.5.5,0,0,0,.549-.414q1-3.785,2.011-7.569c.077-.291,0-.457-.336-.464m-.9,1.4c-.343,1.326-.7,2.647-1.056,3.97-.148.553-.286,1.11-.435,1.663a.614.614,0,0,1-.612.523c-.058-.01-.134-.026-.212-.038-.755-.123-.736-.117-.532-.868.433-1.6.838-3.2,1.266-4.8.226-.843.653-1.073,1.478-.859.312.082.136.285.1.412" transform="translate(-457.022 -556.226)" fill="#eeecec"/>
        <path id="Path_33" data-name="Path 33" d="M288.334,995.838l-.037.024-.046-.062c.012-.009.033-.025.036-.023a.473.473,0,0,1,.047.061" transform="translate(-260.994 -900.311)" fill="#0b1035"/>
        <path id="Path_34" data-name="Path 34" d="M746.867,121.775c-.009.026-.017.053-.026.079.01-.026.019-.053.027-.079a.086.086,0,0,0,0-.016.123.123,0,0,1,0,.016" transform="translate(-676.221 -110.086)" fill="#f43e49"/>
        <path id="Path_35" data-name="Path 35" d="M439.622,62.122a8,8,0,0,0-5.969-2.54c-1.51-.047-3.022-.014-4.533-.013l-9.35.012-.381-.007-.471-.015a12.039,12.039,0,0,0-2.464.094l-.456.073-.963.214c-.315.1-.632.187-.943.291a16.4,16.4,0,0,0-7.071,4.713,15.1,15.1,0,0,0-3.463,6.271q-2.444,9.222-4.87,18.449a41.018,41.018,0,0,0-1.567,6.7,8.5,8.5,0,0,0,2.224,6.783,8.019,8.019,0,0,0,6.236,2.453c1.277.008,2.553,0,3.829-.008q3.24,0,6.477-.007c.507,0,.643.2.494.7-.074.244-.148.488-.214.734-1.242,4.683-2.364,9.4-3.734,14.048-.178.6-.08.758.512.933q2.381.7,4.759,1.405c.143.042.314.034.406.2-.132.14-.3.084-.449.084q-5.154.006-10.307.006c-2.253,0-4.508.01-6.761,0a.741.741,0,0,0-.844.644c-.09.42-.22.83-.33,1.245-1.031,3.883-2.053,7.768-3.1,11.645-.115.427.014.552.387.571.142.008.284.01.426.01,2.732-.006,5.464-.016,8.2-.016,2.3,0,4.6.023,6.9.012a13.518,13.518,0,0,0,4.584-.816,16.873,16.873,0,0,0,8.041-6.347.868.868,0,0,1,.044-.083,10.7,10.7,0,0,0,1.58-3.2,1.636,1.636,0,0,0,.233-.651,1.528,1.528,0,0,0,.15-.592.556.556,0,0,0,.091-.382c.009-.046.018-.091.026-.137a8.87,8.87,0,0,0,.442-1.589c.214-.8.527-1.576.661-2.4,0-.059.006-.12.009-.179-.05-.121-.128-.249.079-.3a3.53,3.53,0,0,0,.3-1.051c.357-.949.469-1.962.748-2.935.716-2.493,1.38-5,2.041-7.508.349-1.323.772-2.628,1.016-3.979a2.633,2.633,0,0,0,.263-.889,13,13,0,0,0,.566-2.328c.148-.121.144-.309.191-.471.106-.363.093-.778.219-1.107.4-1.049.605-2.149.909-3.222a11.771,11.771,0,0,0,.484-1.816q.4-1.475.8-2.951c.344-1.249.707-2.495.982-3.763l1.492-5.563c.738-2.77,1.5-5.533,2.206-8.311a42.712,42.712,0,0,0,1.46-6.241,8.564,8.564,0,0,0-2.226-6.872M428.7,74c-1.107.413-2.211.841-3.328,1.222a1.653,1.653,0,0,0-1.149,1.265Q422.4,83.5,420.545,90.5c-.293,1.116-.369,1.158-1.487,1.128-.93-.025-1.859,0-2.789-.01a4.585,4.585,0,0,1-.66-.033,1.276,1.276,0,0,1-1.16-1.637c.315-1.4.694-2.783,1.059-4.17q1.311-4.971,2.636-9.937a2.566,2.566,0,0,1,2.765-2.168q3.83-.009,7.659,0a.936.936,0,0,1,.546.077c-.107.18-.275.193-.416.245" transform="translate(-358.808 -53.811)" fill="#f43e49"/>
        <path id="Path_36" data-name="Path 36" d="M732.178,702.458c-.05-.121-.128-.249.079-.3.036.117.046.227-.079.3" transform="translate(-662.893 -634.842)" fill="#f43e49"/>
        <path id="Path_37" data-name="Path 37" d="M130.778,205.409l-.037.024h0l.037-.023" transform="translate(-118.378 -185.716)" fill="#312d47"/>
        <path id="Path_38" data-name="Path 38" d="M602.669,207.248c-.107.18-.275.193-.416.245-1.107.413-2.211.841-3.328,1.222a1.653,1.653,0,0,0-1.149,1.265Q595.953,216.992,594.1,224c-.293,1.116-.369,1.158-1.488,1.128-.93-.025-1.859,0-2.789-.01a4.6,4.6,0,0,1-.66-.033,1.276,1.276,0,0,1-1.16-1.638c.315-1.4.694-2.783,1.059-4.17q1.311-4.971,2.636-9.937a2.566,2.566,0,0,1,2.765-2.168q3.83-.009,7.659,0a.935.935,0,0,1,.546.077" transform="translate(-532.364 -187.305)" fill="#0b1035"/>
        <path id="Path_39" data-name="Path 39" d="M764.454,155.835a.209.209,0,0,1-.04.007.7.7,0,0,1,0-.075s.026,0,.041-.008a.492.492,0,0,1,0,.076" transform="translate(-692.128 -140.826)" fill="#f43e49"/>
        <path id="Path_40" data-name="Path 40" d="M519.833,632.184c-.058-.01-.135-.026-.213-.038-.755-.123-.735-.117-.532-.868.433-1.6.837-3.2,1.266-4.8.226-.843.653-1.073,1.478-.859.312.081.137.284.1.412-.343,1.326-.7,2.647-1.057,3.97-.148.554-.286,1.11-.435,1.664a.615.615,0,0,1-.611.523" transform="translate(-469.895 -565.568)" fill="#0b1035"/>
        <path id="Path_41" data-name="Path 41" d="M751.322,121.948a.485.485,0,0,1-.075,0,.158.158,0,0,1-.007-.04.479.479,0,0,1,.075,0,.22.22,0,0,1,.006.041" transform="translate(-680.205 -110.22)" fill="#f43e49"/>
        <text id="A_LL_Y_O_U_N_E_E_D" data-name="A LL  Y O U  N E E D" transform="translate(45.175 99.761)" fill="#fff" font-size="4" font-family="SegoeUI, Segoe UI"><tspan x="0" y="0">A LL </tspan><tspan y="0" letter-spacing="-0.046em"> </tspan><tspan y="0" xml:space="preserve">Y O U  N E E D</tspan></text>
      </g>
    </g>
  </g>
</svg>
